HIERARCHY
ROOT Hips
{
	OFFSET 0.00000 0.00000 0.00000
	CHANNELS 6 Xposition Yposition Zposition Zrotation Yrotation Xrotation 
	JOINT LHipJoint
	{
		OFFSET 0 0 0
		CHANNELS 3 Zrotation Yrotation Xrotation
		JOINT LeftUpLeg
		{
			OFFSET 1.62964 -1.40469 0.78906
			CHANNELS 3 Zrotation Yrotation Xrotation
			JOINT LeftLeg
			{
				OFFSET 2.29640 -6.30932 0.00000
				CHANNELS 3 Zrotation Yrotation Xrotation
				JOINT LeftFoot
				{
					OFFSET 2.29451 -6.30412 0.00000
					CHANNELS 3 Zrotation Yrotation Xrotation
					JOINT LeftToeBase
					{
						OFFSET 0.03611 -0.09921 1.56387
						CHANNELS 3 Zrotation Yrotation Xrotation
						End Site
						{
							OFFSET 0.00000 -0.00000 0.80291
						}
					}
				}
			}
		}
	}
	JOINT RHipJoint
	{
		OFFSET 0 0 0
		CHANNELS 3 Zrotation Yrotation Xrotation
		JOINT RightUpLeg
		{
			OFFSET -1.73712 -1.40469 0.78906
			CHANNELS 3 Zrotation Yrotation Xrotation
			JOINT RightLeg
			{
				OFFSET -2.28137 -6.26801 0.00000
				CHANNELS 3 Zrotation Yrotation Xrotation
				JOINT RightFoot
				{
					OFFSET -2.28681 -6.28298 0.00000
					CHANNELS 3 Zrotation Yrotation Xrotation
					JOINT RightToeBase
					{
						OFFSET -0.15927 -0.43759 1.61103
						CHANNELS 3 Zrotation Yrotation Xrotation
						End Site
						{
							OFFSET -0.00000 -0.00000 0.84630
						}
					}
				}
			}
		}
	}
	JOINT LowerBack
	{
		OFFSET 0 0 0
		CHANNELS 3 Zrotation Yrotation Xrotation
		JOINT Spine
		{
			OFFSET -0.04227 2.04338 -0.00225
			CHANNELS 3 Zrotation Yrotation Xrotation
			JOINT Spine1
			{
				OFFSET -0.02148 2.04482 -0.04273
				CHANNELS 3 Zrotation Yrotation Xrotation
				JOINT Neck
				{
					OFFSET 0 0 0
					CHANNELS 3 Zrotation Yrotation Xrotation
					JOINT Neck1
					{
						OFFSET 0.09180 1.44629 0.19359
						CHANNELS 3 Zrotation Yrotation Xrotation
						JOINT Head
						{
							OFFSET 0.00887 1.40645 0.14750
							CHANNELS 3 Zrotation Yrotation Xrotation
							End Site
							{
								OFFSET -0.00669 1.50671 0.03707
							}
						}
					}
				}
				JOINT LeftShoulder
				{
					OFFSET 0 0 0
					CHANNELS 3 Zrotation Yrotation Xrotation
					JOINT LeftArm
					{
						OFFSET 2.17674 1.86763 -0.06520
						CHANNELS 3 Zrotation Yrotation Xrotation
						JOINT LeftForeArm
						{
							OFFSET 4.65776 -0.00000 0.00000
							CHANNELS 3 Zrotation Yrotation Xrotation
							JOINT LeftHand
							{
								OFFSET 3.55539 -0.00000 0.00000
								CHANNELS 3 Zrotation Yrotation Xrotation
								JOINT LeftFingerBase
								{
									OFFSET 0 0 0
									CHANNELS 3 Zrotation Yrotation Xrotation
									JOINT LeftHandIndex1
									{
										OFFSET 0.70726 -0.00000 0.00000
										CHANNELS 3 Zrotation Yrotation Xrotation
										End Site
										{
											OFFSET 0.57022 -0.00000 0.00000
										}
									}
								}
								JOINT LThumb
								{
									OFFSET 0 0 0
									CHANNELS 3 Zrotation Yrotation Xrotation
									End Site
									{
										OFFSET 0.57892 -0.00000 0.57892
									}
								}
							}
						}
					}
				}
				JOINT RightShoulder
				{
					OFFSET 0 0 0
					CHANNELS 3 Zrotation Yrotation Xrotation
					JOINT RightArm
					{
						OFFSET -2.80694 1.55459 -0.32496
						CHANNELS 3 Zrotation Yrotation Xrotation
						JOINT RightForeArm
						{
							OFFSET -4.71925 -0.00000 -0.00000
							CHANNELS 3 Zrotation Yrotation Xrotation
							JOINT RightHand
							{
								OFFSET -3.56990 -0.00000 0.00000
								CHANNELS 3 Zrotation Yrotation Xrotation
								JOINT RightFingerBase
								{
									OFFSET 0 0 0
									CHANNELS 3 Zrotation Yrotation Xrotation
									JOINT RightHandIndex1
									{
										OFFSET -0.50776 -0.00000 0.00000
										CHANNELS 3 Zrotation Yrotation Xrotation
										End Site
										{
											OFFSET -0.40937 -0.00000 0.00000
										}
									}
								}
								JOINT RThumb
								{
									OFFSET 0 0 0
									CHANNELS 3 Zrotation Yrotation Xrotation
									End Site
									{
										OFFSET -0.41562 -0.00000 0.41562
									}
								}
							}
						}
					}
				}
			}
		}
	}
}
MOTION
Frames: 13
Frame Time: .0083333
-1.243 16.281 21.1474 0 0 0 0 0 0 -21 0 0 0 0 0 0 0 0 0 0 0 0 0 0 21 0 0 0 0 0 0 0 0 0 0 0 0 0 0 0 0 0 0 0 0 0 0 -16 0 0 21 0 0 11 0 0 0 -8 0 0 0 0 0 0 0 0 0 0 0 0 0 0 0 0 0 0 0 0 8 0 0 0 0 0 0 0 0 0 0 0 0 0 0 0 0 0
-1.2430 16.2810 21.1474 179.5150 -1.3302 -153.7080 0.0000 0.0000 0.0000 -20.2019 -14.8357 -20.6104 0.1688 2.6468 7.2968 0.1671 -2.5941 -7.2605 4.5411 -12.8475 -38.8004 0.0000 0.0000 0.0000 19.2113 14.5726 -21.4073 -0.1564 -2.5481 7.0230 -0.8382 5.5075 -16.3248 -0.3771 3.9438 -10.9187 -5.8447 -2.0157 -28.2125 0.3499 -1.5092 -2.0119 3.1300 -1.3315 13.6032 -0.6510 -5.0192 -1.5484 3.6586 -6.3165 17.4949 0.9571 -2.4431 5.6687 0.0000 -0.0000 0.0000 -85.5111 0.9517 22.7703 12.0595 -19.8938 -2.1225 -0.0000 -0.0000 3.1674 22.1749 -12.7112 -5.1247 -7.1250 0.0000 -0.0000 -3.5282 16.3072 2.4002 0.0000 -0.0000 0.0000 92.2185 -8.9198 10.3279 -19.2730 29.7565 -5.1657 0.0000 -0.0000 -5.0547 -14.0551 -55.3752 11.6407 7.1250 -0.0000 -0.0000 76.0133 -77.0043 -62.7401
-1.2298 16.2794 21.1457 179.7850 -1.3310 -153.8280 0.0000 0.0000 0.0000 -19.7665 -14.7142 -20.5752 0.1689 2.6475 7.2988 0.1697 -2.4894 -7.3173 4.4939 -12.7902 -38.5880 0.0000 0.0000 0.0000 19.4875 15.1225 -21.1008 -0.1559 -2.5440 7.0116 -0.8557 5.0068 -16.5138 -0.3916 4.0184 -11.1283 -5.7715 -2.0174 -28.1449 0.4865 -1.5416 -1.9533 3.2354 -1.3432 13.6434 -0.5970 -5.0001 -1.6679 3.4824 -6.2760 17.5567 0.8921 -2.4316 5.7001 -0.0000 0.0000 0.0000 -85.6004 0.8138 22.2860 12.0633 -19.8995 -2.1238 -0.0000 -0.0000 3.7551 21.7724 -12.3275 -4.8741 -7.1250 0.0000 -0.0000 -3.7913 16.7561 2.5429 -0.0000 0.0000 0.0000 92.1386 -8.8923 10.4508 -19.2885 29.7756 -5.1733 0.0000 -0.0000 -5.1242 -13.8701 -55.2712 11.4715 7.1250 -0.0000 -0.0000 75.5775 -76.9223 -62.2307
-1.2416 16.2833 21.1523 179.6170 -1.3769 -153.7040 0.0000 0.0000 0.0000 -20.0240 -14.8772 -20.6863 0.1714 2.6674 7.3540 0.1652 -2.5289 -7.2196 4.4842 -12.7783 -38.5440 0.0000 0.0000 0.0000 19.3353 14.5702 -21.5004 -0.1604 -2.5808 7.1137 -0.8439 5.4631 -16.3812 -0.4227 4.1729 -11.5637 -5.7678 -2.0300 -28.1984 0.4046 -1.5524 -1.9792 3.1326 -1.3469 13.6393 -0.6485 -5.0554 -1.7705 3.5596 -6.3578 17.6915 0.9170 -2.4620 5.7661 -0.0000 0.0000 0.0000 -85.5658 0.6927 22.2364 12.0166 -19.8296 -2.1079 -0.0000 -0.0000 3.7190 21.4554 -12.2807 -4.7785 -7.1250 0.0000 -0.0000 -4.0097 16.8360 2.6832 -0.0000 0.0000 0.0000 92.1618 -8.8811 10.4688 -19.2934 29.7816 -5.1758 0.0000 -0.0000 -5.1719 -13.7856 -55.3667 11.4135 7.1250 -0.0000 -0.0000 75.9987 -76.9019 -62.6134
-1.2288 16.2816 21.1473 179.8320 -1.3399 -153.8350 0.0000 0.0000 0.0000 -19.6783 -14.8442 -20.5401 0.1691 2.6489 7.3028 0.1645 -2.3331 -7.2087 4.4453 -12.7305 -38.3680 0.0000 0.0000 0.0000 19.5702 15.0803 -21.1564 -0.1574 -2.5565 7.0463 -0.8522 5.0612 -16.4770 -0.4330 4.2228 -11.7043 -5.7366 -1.9937 -28.1183 0.4763 -1.5198 -1.9478 3.2124 -1.3299 13.6323 -0.5054 -5.0186 -1.5737 3.4922 -6.3077 17.4517 0.8812 -2.4450 5.6493 -0.0000 0.0000 0.0000 -85.5224 0.6686 22.4730 11.9795 -19.7738 -2.0953 -0.0000 -0.0000 3.4259 21.5303 -12.1626 -4.7515 -7.1250 0.0000 -0.0000 -3.9533 16.9546 2.6350 -0.0000 0.0000 0.0000 92.2285 -8.9238 10.3701 -19.3168 29.8104 -5.1874 0.0000 -0.0000 -5.0876 -13.6551 -55.5767 11.3320 7.1250 -0.0000 -0.0000 76.9166 -76.8757 -63.4702
-1.2417 16.2823 21.1545 179.7390 -1.4704 -153.8510 0.0000 0.0000 0.0000 -19.9073 -14.8407 -20.5091 0.1687 2.6460 7.2946 0.1621 -2.5513 -7.1510 4.4268 -12.7077 -38.2838 0.0000 0.0000 0.0000 19.5583 14.5731 -21.2605 -0.1560 -2.5452 7.0149 -0.8364 5.4412 -16.3082 -0.3938 4.0295 -11.1596 -5.6243 -2.0133 -27.9564 0.4328 -1.5853 -1.9769 3.0739 -1.3471 13.5139 -0.4944 -4.9239 -1.9129 3.3807 -6.1356 18.1256 0.8447 -2.3288 5.9112 -0.0000 0.0000 0.0000 -85.5368 0.6993 22.7969 11.9956 -19.7980 -2.1008 -0.0000 -0.0000 2.8003 21.8894 -12.0210 -4.7833 -7.1250 0.0000 -0.0000 -3.6979 17.0720 2.4545 -0.0000 0.0000 0.0000 92.2651 -9.0043 10.3408 -19.3875 29.8973 -5.2226 0.0000 -0.0000 -4.9358 -13.4439 -55.8035 11.1840 7.1250 -0.0000 -0.0000 77.9072 -76.8179 -64.3667
-1.2302 16.2806 21.1489 179.6500 -1.3031 -153.8540 0.0000 0.0000 0.0000 -19.9691 -14.6606 -20.5288 0.1655 2.6211 7.2256 0.1648 -2.5606 -7.2090 4.4724 -12.7638 -38.4907 0.0000 0.0000 0.0000 19.3516 15.0393 -21.1255 -0.1567 -2.5503 7.0291 -0.8513 5.0158 -16.4696 -0.4055 4.0881 -11.3246 -5.9005 -2.0576 -28.0564 0.4322 -1.5481 -1.9413 3.2457 -1.3501 13.6122 -0.3527 -5.1051 -1.3859 3.3464 -6.4128 17.2983 0.8104 -2.5045 5.5619 -0.0000 -0.0000 0.0000 -85.5424 0.6803 22.9650 12.0044 -19.8112 -2.1038 -0.0000 -0.0000 2.2807 22.1336 -12.1876 -4.9079 -7.1250 0.0000 -0.0000 -3.5346 16.8708 2.3612 -0.0000 -0.0000 0.0000 92.2550 -9.0049 10.4377 -19.4050 29.9188 -5.2313 0.0000 -0.0000 -4.9053 -13.3093 -56.0989 11.1085 7.1250 -0.0000 -0.0000 79.1830 -76.7899 -65.5791
-1.2418 16.2813 21.1557 179.6530 -1.4607 -153.8660 0.0000 0.0000 0.0000 -20.0356 -14.7607 -20.5065 0.1677 2.6383 7.2733 0.1646 -2.6397 -7.2049 4.4467 -12.7323 -38.3743 0.0000 0.0000 0.0000 19.4290 14.6063 -21.2285 -0.1559 -2.5438 7.0112 -0.8483 5.2375 -16.4308 -0.4138 4.1293 -11.4407 -5.7113 -2.0558 -27.9997 0.4226 -1.6001 -1.9187 3.1057 -1.3589 13.6098 -0.2784 -5.2610 -1.4718 3.3657 -6.6382 17.3440 0.7895 -2.6067 5.5939 0.0000 0.0000 0.0000 -85.5538 0.5783 23.1114 11.9713 -19.7615 -2.0926 -0.0000 -0.0000 1.8859 22.4145 -12.6241 -5.1510 -7.1250 0.0000 -0.0000 -3.3585 16.3763 2.2793 0.0000 0.0000 0.0000 92.2123 -8.9124 10.4850 -19.3690 29.8746 -5.2134 0.0000 -0.0000 -4.9048 -13.0815 -56.5063 10.9669 7.1250 -0.0000 -0.0000 80.9301 -76.7261 -67.2236
-1.2338 16.2826 21.1543 179.7010 -1.4167 -153.9060 0.0000 0.0000 0.0000 -19.9168 -14.7307 -20.4818 0.1671 2.6337 7.2605 0.1669 -2.6005 -7.2559 4.4126 -12.6900 -38.2190 0.0000 0.0000 0.0000 19.4182 14.9780 -21.0670 -0.1549 -2.5362 6.9901 -0.8608 4.9166 -16.5689 -0.4281 4.1993 -11.6379 -5.8027 -2.0905 -28.0205 0.4935 -1.6173 -1.8773 3.2340 -1.3749 13.6768 -0.6750 -5.0795 -1.8190 3.4979 -6.3865 17.6955 0.8989 -2.4843 5.7752 -0.0000 -0.0000 0.0000 -85.6126 0.4956 22.9914 11.9607 -19.7456 -2.0890 -0.0000 -0.0000 2.1442 22.4808 -12.8475 -5.2573 -7.1250 0.0000 -0.0000 -3.3229 16.1303 2.2728 -0.0000 -0.0000 0.0000 92.1274 -8.8636 10.5542 -19.3546 29.8569 -5.2062 0.0000 -0.0000 -4.8538 -12.8363 -56.8359 10.7991 7.1250 -0.0000 -0.0000 82.3274 -76.6447 -68.5155
-1.2441 16.2866 21.1618 179.5350 -1.4286 -153.7620 0.0000 0.0000 0.0000 -20.1518 -14.8474 -20.6322 0.1687 2.6459 7.2944 0.1652 -2.6340 -7.2184 4.4590 -12.7473 -38.4298 0.0000 0.0000 0.0000 19.2491 14.4907 -21.4790 -0.1599 -2.5768 7.1027 -0.8458 5.3905 -16.4018 -0.4443 4.2768 -11.8568 -5.8503 -2.1394 -28.0476 0.4771 -1.6745 -1.9334 3.2192 -1.4050 13.6308 -0.7524 -4.8819 -1.9990 3.4277 -6.0810 18.0901 0.9024 -2.3227 5.9231 -0.0000 0.0000 0.0000 -85.6950 0.4718 22.5590 11.9821 -19.7777 -2.0962 -0.0000 -0.0000 3.1314 22.2228 -12.6744 -5.1224 -7.1250 0.0000 -0.0000 -3.4934 16.3417 2.3738 -0.0000 0.0000 0.0000 92.0337 -8.9011 10.6778 -19.3843 29.8934 -5.2210 0.0000 -0.0000 -4.8738 -13.1287 -57.4826 11.1264 7.1250 -0.0000 -0.0000 85.1233 -76.7392 -71.4124
-1.2331 16.2849 21.1600 179.7600 -1.3823 -153.8630 0.0000 0.0000 0.0000 -19.8072 -14.7203 -20.5738 0.1670 2.6327 7.2576 0.1658 -2.4741 -7.2323 4.5140 -12.8147 -38.6787 0.0000 0.0000 0.0000 19.5101 14.7825 -21.3146 -0.1617 -2.5907 7.1411 -0.8492 5.2373 -16.4398 -0.4552 4.3280 -12.0014 -5.7927 -2.1196 -27.9749 0.5784 -1.6769 -1.9086 3.3044 -1.4037 13.6239 -0.8535 -4.9995 -1.9423 3.5913 -6.2655 17.9842 0.9608 -2.4136 5.8930 -0.0000 0.0000 0.0000 -85.7129 0.4802 22.4866 12.0237 -19.8401 -2.1103 -0.0000 -0.0000 3.5134 22.0248 -12.2064 -4.8887 -7.1250 0.0000 -0.0000 -3.6109 16.8612 2.4132 -0.0000 0.0000 0.0000 92.0216 -8.9413 10.7005 -19.4006 29.9134 -5.2291 0.0000 -0.0000 -4.8388 -13.2959 -57.7060 11.2968 7.1250 -0.0000 -0.0000 86.1102 -76.7865 -72.4587
-1.2403 16.2856 21.1643 179.7180 -1.4101 -153.8460 0.0000 0.0000 0.0000 -19.9006 -14.8195 -20.5753 0.1689 2.6476 7.2992 0.1649 -2.4699 -7.2139 4.4796 -12.7726 -38.5231 0.0000 0.0000 0.0000 19.4911 14.5222 -21.4381 -0.1623 -2.5952 7.1538 -0.8393 5.5054 -16.3355 -0.4583 4.3429 -12.0435 -5.6692 -2.0989 -27.9254 0.5033 -1.6854 -1.9345 3.1430 -1.3963 13.5617 -0.5814 -5.2203 -1.4676 3.6039 -6.5992 17.3434 0.9150 -2.5918 5.6104 0.0000 0.0000 0.0000 -85.5879 0.5618 22.8612 12.1059 -19.9632 -2.1383 -0.0000 -0.0000 3.0829 20.5808 -10.6802 -3.9808 -7.1250 0.0000 -0.0000 -4.5761 18.6105 2.8857 0.0000 0.0000 0.0000 92.1234 -8.9871 10.6896 -19.4166 29.9330 -5.2371 0.0000 -0.0000 -4.8194 -13.2599 -57.6917 11.2641 7.1250 -0.0000 -0.0000 86.0419 -76.7747 -72.3768
-1.2321 16.2860 21.1628 179.7690 -1.3715 -153.8490 0.0000 0.0000 0.0000 -19.7577 -14.8666 -20.5914 0.1699 2.6553 7.3205 0.1676 -2.3556 -7.2763 4.4723 -12.7637 -38.4902 0.0000 0.0000 0.0000 19.5081 14.8239 -21.3558 -0.1618 -2.5914 7.1433 -0.8449 5.2735 -16.3962 -0.4724 4.4082 -12.2281 -5.6954 -2.0921 -27.9316 0.4943 -1.6663 -1.9286 3.1550 -1.3892 13.5703 -0.8139 -4.8513 -2.3531 3.5750 -6.0356 18.6869 0.9529 -2.2589 6.1783 -0.0000 0.0000 0.0000 -85.4794 0.5978 23.1210 12.1702 -20.0594 -2.1603 -0.0000 -0.0000 2.7374 19.9901 -10.0100 -3.6181 -7.1250 0.0000 -0.0000 -4.9833 19.3636 3.0607 -0.0000 0.0000 0.0000 92.2243 -8.9925 10.6416 -19.4137 29.9295 -5.2357 0.0000 -0.0000 -4.8253 -13.0142 -57.4007 11.0186 7.1250 -0.0000 -0.0000 84.7558 -76.7018 -71.0020
